<?xml version="1.0" encoding="UTF-8"?>
<!DOCTYPE svg PUBLIC "-//W3C//DTD SVG 1.1//EN" "http://www.w3.org/Graphics/SVG/1.1/DTD/svg11.dtd">
<!-- Creator: CorelDRAW -->
<svg xmlns="http://www.w3.org/2000/svg" xml:space="preserve" width="169.333mm" height="169.333mm" version="1.1" style="shape-rendering:geometricPrecision; text-rendering:geometricPrecision; image-rendering:optimizeQuality; fill-rule:evenodd; clip-rule:evenodd"
viewBox="0 0 16933.32 16933.32"
 xmlns:xlink="http://www.w3.org/1999/xlink"
 xmlns:xodm="http://www.corel.com/coreldraw/odm/2003">
 <defs>
  <style type="text/css">
   <![CDATA[
    .fil9 {fill:none}
    .fil1 {fill:#32221E}
    .fil8 {fill:#EA3BCB}
    .fil0 {fill:#F60005}
    .fil2 {fill:#F72C31}
    .fil5 {fill:#FC1EAA}
    .fil3 {fill:#FE0633}
    .fil7 {fill:#FE0B4F}
    .fil4 {fill:#FF1270}
    .fil6 {fill:#FF158F}
   ]]>
  </style>
 </defs>
 <g id="Layer_x0020_1">
  <metadata id="CorelCorpID_0Corel-Layer"/>
  <g id="_1860413334224">
   <path class="fil0" d="M3156.23 7830.67l-258.05 -185.04c-121.64,219.95 -346.11,517.1 -717.32,484.69 -233.02,-382.98 -217.87,-824.93 -225.01,-1382.05l-270.49 -263.05c-72.35,-112.95 6.84,91.51 -45.09,-106.24 -178.24,598.79 -281.42,1230.63 -298.37,1885 -51.82,2001.05 712.42,3833.77 1989.47,5178.86 1277.19,1344.95 3067.9,2203.03 5068.95,2254.85 2001.05,51.82 3833.77,-712.42 5178.86,-1989.46 1344.96,-1277.2 2203.03,-3067.9 2254.85,-5068.95 43.08,-1663.51 -477.9,-3210.68 -1388.54,-4458.07 -14.66,22.18 -30.96,46.11 -49.33,72.04 -138.74,196.05 -256.6,239.7 -458.69,414.25 -0.61,960.16 -48.18,1642.07 -502.55,2302.54 -370.12,537.96 -1713.82,1806.44 -2608.62,1289.97 -1308.47,-755.21 -1751.95,-1799.78 -2304.76,-1875.47 -399.51,488.23 -944.63,4043.03 -3964.35,2475.47 -866.93,-449.98 -1131.85,-881.91 -1400.96,-1029.34z"/>
   <path class="fil0" d="M1855.24 5761.15c71.07,65.24 143.63,131.93 217.88,177.82l103.68 5.3c70.63,-322.9 218.3,-602.56 377.1,-841.29 335.95,-504.94 410.74,-91.34 711.87,-490.4l-132.68 -57.16c-67.53,-27.7 -91.9,-33.14 -155.24,-65.16 -3.04,-62.72 -15.59,-183.54 -6.35,-242.25 9.67,-61.52 2.29,-99.73 83.62,-182.69 261.46,-219.08 1281.64,-81.99 1709.34,-109.02 404.08,-25.57 1397.94,-151.92 1740.37,-120.25 223.47,7.36 46.09,6.67 229.06,-64.56 183.41,-71.4 195.89,-26.21 200.79,-25.24 221.77,43.5 169.45,161.49 238.37,383.32 132.85,427.76 915.26,489.22 -438.32,1559.29 -621.94,491.68 -964.11,281.29 -662.4,-558.81 78.29,-217.93 174.87,-436.15 199.56,-698.5l-1138.97 59.77 -246.9 -9.89c-198.59,113.57 -504.08,-3.37 -687.27,125.81 -865.38,610.12 -249.59,1058.52 -641.33,1823.43 435.5,-36.73 1726.51,-175.24 2062.77,-132.95 560.59,-31.9 1917.27,-502.3 2664.26,-668.05l976.55 -154.73c1175.33,-237.8 2365.01,-626.67 3537.73,-949.2 360.07,-99.03 836.86,-267.9 1028.6,-462.72 95.54,-97.08 181.64,-215.52 248.88,-346.74 -75.2,-87.1 -152.44,-172.42 -231.64,-255.87 -1277.19,-1344.95 -3067.9,-2203.03 -5068.95,-2254.85 -2001.05,-51.82 -3833.77,712.42 -5178.87,1989.47 -750.75,712.93 -1349.71,1585.91 -1741.51,2566.12z"/>
   <path class="fil1" d="M5620.19 6297.72l-2025.53 209.13c-184.74,13.47 -631.81,73.43 -787.43,51.94 -140.19,-19.38 -208.39,-85.05 -296.29,-160.61 -116.75,-100.34 -130.9,-95.28 -196.25,-228.66 -112.86,-34.41 20.83,28.73 -73.43,-38.6 -12.68,-9.02 -60.61,-52.62 -67.03,-59.37 -67.6,-70.93 -53.47,-57.07 -101.11,-132.58 -74.25,-45.89 -146.81,-112.58 -217.88,-177.82 -80.46,201.34 -152.23,407.11 -214.75,617.05 107.27,71.64 452.87,372.44 515.38,465.63 95.04,51.58 118.28,72.68 205.11,126.18 69.36,42.72 129.68,61.6 197.66,110.24 135.99,97.33 209.05,250.01 267.33,354.6 130.56,102.12 258.07,240.87 330.26,395.82 269.11,147.43 534.03,579.36 1400.96,1029.34 3019.72,1567.56 3564.84,-1987.24 3964.35,-2475.47 552.81,75.69 996.29,1120.26 2304.76,1875.47 894.8,516.47 2238.5,-752.01 2608.62,-1289.97 454.37,-660.47 501.94,-1342.38 502.55,-2302.54 202.09,-174.55 319.95,-218.2 458.69,-414.25 18.37,-25.93 34.67,-49.86 49.33,-72.04 -116.81,-160.04 -240.02,-315.15 -369.28,-464.93 -67.24,131.22 -153.34,249.66 -248.88,346.74 -191.74,194.82 -668.53,363.69 -1028.6,462.72 -1172.72,322.53 -2362.4,711.4 -3537.73,949.2l-976.55 154.73c-746.99,165.75 -2103.67,636.15 -2664.26,668.05z"/>
   <path class="fil1" d="M12501.15 9560.69c-940.07,-282.11 -5131.25,1984.61 -7923.05,1965.8 -709.2,-4.75 -403.55,453.14 -101.81,985.3 661.47,1166.51 1400.88,2054.64 3035.91,2072.94 1004.87,11.21 1900.12,-387.21 2548.65,-802.32 629.28,-402.75 1259.35,-1012.43 1709.4,-1659.1 348.73,-501.21 998.05,-1770.9 730.9,-2562.62z"/>
   <path class="fil2" d="M4885.76 12059.65c-4.63,379.04 797.74,1461.25 1481.23,1769.43 2578.61,1162.51 5755.37,-2174.41 5630.6,-3705.31 -272.55,-5.8 -3476.71,1136.86 -4288.57,1365.82 -289.33,81.57 -617.58,157.91 -894.35,245.46 -578.56,183.02 -1228.51,246.77 -1928.91,324.6z"/>
   <path class="fil3" d="M11388.43 3134.37c114.34,-296.12 -20.76,-327.54 -215.76,-516.49 -121.16,-117.39 12,-41.52 -139.97,-130.53l-372.62 -107.51c-174.41,-16.03 68.06,64.73 -133.33,-32.96 -5.27,-2.53 1.87,-13.68 -69.74,-31.25 -251.11,-61.45 -51.98,-5.78 -59.24,2.26 57.59,-79.32 6.97,-134.07 2.26,-148.07 -145.34,-428.32 -868.76,-346.59 -1228.74,-357.78 -6.09,8.68 -13.72,13.11 -16.13,27.4l-69.7 116.96c-118.38,160.31 -345.41,147.63 -326.52,353.65 10.27,112.07 -37.05,63.94 112.79,144.02 6.24,3.37 19.27,6.83 25.58,9.61l178.97 79.01c9.5,4.67 21.15,10.69 30.97,15.38 9.96,4.8 21.8,10.24 31.94,14.99 10.08,4.78 22.18,9.44 32.2,14.13 291.82,138.25 806.81,523.28 1202.08,563.2 403.12,40.73 728.61,147.81 1014.96,-16.02z"/>
   <path class="fil1" d="M3055.12 4065.32c-144.05,602.45 176.69,445.02 689.22,423.89 367.16,-15.18 771.81,-13.28 1141.68,-7.78l246.9 9.89 1182.67 -138.25c282.36,-35.66 386.66,-111.67 269.86,-403.95 -68.79,-45.66 -48.41,-26.53 -80.62,-113.07 -342.43,-31.67 -1336.29,94.68 -1740.37,120.25 -427.7,27.03 -1447.88,-110.06 -1709.34,109.02z"/>
   <path class="fil4" d="M2073.12 5938.97c47.64,75.51 33.51,61.65 101.11,132.58 6.42,6.75 54.35,50.35 67.03,59.37 94.26,67.33 -39.43,4.19 73.43,38.6 130.19,-99.74 220.56,-295.52 309.76,-438.28 23.6,-37.87 68.33,-99.94 91.56,-133.71 274.65,-398.55 226.66,-452.5 603.71,-442.74 229.25,566.46 124.8,1257.54 -173.25,1283.14l448.19 68.92 2025.53 -209.13c-336.26,-42.29 -1627.27,96.22 -2062.77,132.95 391.74,-764.91 -224.05,-1213.31 641.33,-1823.43 183.19,-129.18 488.68,-12.24 687.27,-125.81 -369.87,-5.5 -774.52,-7.4 -1141.68,7.78 -512.53,21.13 -833.27,178.56 -689.22,-423.89 -81.33,82.96 -73.95,121.17 -83.62,182.69 -9.24,58.71 3.31,179.53 6.35,242.25 63.34,32.02 87.71,37.46 155.24,65.16l132.68 57.16c-301.13,399.06 -375.92,-14.54 -711.87,490.4 -158.8,238.73 -306.47,518.39 -377.1,841.29l-103.68 -5.3z"/>
   <path class="fil1" d="M9316.07 3872.93c633.53,334.12 1847.04,-31.66 2023.04,-46.61 300.59,-25.48 446.71,54.13 704.08,-87.94 138.41,-867.8 -1093.49,-144.11 -2234.77,-270.11 -413.84,-45.64 -621.25,-74.45 -492.35,404.66z"/>
   <path class="fil4" d="M6504.83 3836.05c32.21,86.54 11.83,67.41 80.62,113.07 137.91,145.6 0.01,44.54 83.93,169.83 50.52,75.47 -19.27,8.98 69.77,76.44 84.69,64.17 713.3,349.5 495.74,799.56 -49.38,102.15 -548.55,521.33 -673.96,595.36 -124.22,73.34 -201.54,94.92 -370.35,76.3 23.21,-18.18 5.93,180.87 4.28,-52.51 -0.02,-5.02 -1.12,-18.6 -1.18,-24.41l354.19 -1199.12 -232.28 -37.5 -1182.67 138.25 1138.97 -59.77c-24.69,262.35 -121.27,480.57 -199.56,698.5 -301.71,840.1 40.46,1050.49 662.4,558.81 1353.58,-1070.07 571.17,-1131.53 438.32,-1559.29 -68.92,-221.83 -16.6,-339.82 -238.37,-383.32 -4.9,-0.97 -17.38,-46.16 -200.79,25.24 -182.97,71.23 -5.59,71.92 -229.06,64.56z"/>
   <path class="fil5" d="M2314.69 6169.52c65.35,133.38 79.5,128.32 196.25,228.66 87.9,75.56 156.1,141.23 296.29,160.61 155.62,21.49 602.69,-38.47 787.43,-51.94l-448.19 -68.92c298.05,-25.6 402.5,-716.68 173.25,-1283.14 -377.05,-9.76 -329.06,44.19 -603.71,442.74 -23.23,33.77 -67.96,95.84 -91.56,133.71 -89.2,142.76 -179.57,338.54 -309.76,438.28z"/>
   <path class="fil6" d="M6315.59 4353.07l232.28 37.5 -354.19 1199.12c0.06,5.81 1.16,19.39 1.18,24.41 1.65,233.38 18.93,34.33 -4.28,52.51 168.81,18.62 246.13,-2.96 370.35,-76.3 125.41,-74.03 624.58,-493.21 673.96,-595.36 217.56,-450.06 -411.05,-735.39 -495.74,-799.56 -89.04,-67.46 -19.25,-0.97 -69.77,-76.44 -83.92,-125.29 53.98,-24.23 -83.93,-169.83 116.8,292.28 12.5,368.29 -269.86,403.95z"/>
   <path class="fil6" d="M9329.84 2289.97c100.04,350.3 1388.22,981.76 1789.65,577.68 -129.06,-278.86 -451.9,-338.41 -802.06,-473.57 -314.18,-121.31 -621.38,-414.76 -987.59,-104.11z"/>
   <path class="fil7" d="M3156.23 7830.67c-72.19,-154.95 -199.7,-293.7 -330.26,-395.82 -191.22,26.42 -31.77,-23.8 -280.52,250.39 -86.46,95.36 -129.26,154.34 -289.39,160.6 -144.78,-266.51 -167.71,-657.66 -100.19,-1002.01 -62.51,-93.19 -408.11,-393.99 -515.38,-465.63l-0.22 0.78c51.93,197.75 -27.26,-6.71 45.09,106.24l270.49 263.05c7.14,557.12 -8.01,999.07 225.01,1382.05 371.21,32.41 595.68,-264.74 717.32,-484.69l258.05 185.04z"/>
   <path class="fil8" d="M2825.97 7434.85c-58.28,-104.59 -131.34,-257.27 -267.33,-354.6 -67.98,-48.64 -128.3,-67.52 -197.66,-110.24 -86.83,-53.5 -110.07,-74.6 -205.11,-126.18 -67.52,344.35 -44.59,735.5 100.19,1002.01 160.13,-6.26 202.93,-65.24 289.39,-160.6 248.75,-274.19 89.3,-223.97 280.52,-250.39z"/>
  </g>
  <rect class="fil9" x="306.64" y="373.37" width="16123" height="16154.72"/>
 </g>
</svg>
