<?xml version="1.0" encoding="UTF-8"?>
<!DOCTYPE svg PUBLIC "-//W3C//DTD SVG 1.1//EN" "http://www.w3.org/Graphics/SVG/1.1/DTD/svg11.dtd">
<!-- Creator: CorelDRAW -->
<svg xmlns="http://www.w3.org/2000/svg" xml:space="preserve" width="169.333mm" height="169.333mm" version="1.1" style="shape-rendering:geometricPrecision; text-rendering:geometricPrecision; image-rendering:optimizeQuality; fill-rule:evenodd; clip-rule:evenodd"
viewBox="0 0 16933.32 16933.32"
 xmlns:xlink="http://www.w3.org/1999/xlink"
 xmlns:xodm="http://www.corel.com/coreldraw/odm/2003">
 <defs>
  <style type="text/css">
   <![CDATA[
    .fil9 {fill:none}
    .fil1 {fill:#32221E}
    .fil8 {fill:#EA3BCB}
    .fil0 {fill:#F60005}
    .fil2 {fill:#F72C31}
    .fil5 {fill:#FC1EAA}
    .fil3 {fill:#FE0633}
    .fil7 {fill:#FE0B4F}
    .fil4 {fill:#FF1270}
    .fil6 {fill:#FF158F}
   ]]>
  </style>
 </defs>
 <g id="Layer_x0020_1">
  <metadata id="CorelCorpID_0Corel-Layer"/>
  <g id="_1860114089808">
   <path class="fil0" d="M6844.59 8286.07l-76.23 -54.67c-35.93,64.98 -102.25,152.76 -211.91,143.19 -68.84,-113.14 -64.37,-243.7 -66.48,-408.29l-79.91 -77.71c-21.37,-33.37 2.03,27.03 -13.32,-31.39 -52.65,176.9 -83.13,363.56 -88.14,556.88 -15.31,591.15 210.47,1132.58 587.73,1529.95 377.32,397.34 906.33,650.83 1497.49,666.14 591.16,15.31 1132.59,-210.46 1529.96,-587.73 397.33,-377.32 650.83,-906.33 666.14,-1497.49 12.72,-491.44 -141.19,-948.51 -410.21,-1317.02 -4.33,6.55 -9.15,13.62 -14.57,21.28 -40.99,57.92 -75.81,70.82 -135.51,122.38 -0.18,283.66 -14.24,485.11 -148.47,680.23 -109.34,158.92 -506.3,533.66 -770.65,381.09 -386.55,-223.11 -517.56,-531.7 -680.88,-554.06 -118.02,144.23 -279.06,1194.4 -1171.16,731.31 -256.11,-132.94 -334.37,-260.54 -413.88,-304.09z"/>
   <path class="fil0" d="M6460.25 7674.68c21,19.28 42.43,38.98 64.37,52.53l30.63 1.57c20.86,-95.39 64.49,-178.01 111.4,-248.54 99.25,-149.17 121.34,-26.98 210.31,-144.87l-39.2 -16.89c-19.95,-8.18 -27.15,-9.79 -45.86,-19.25 -0.9,-18.53 -4.61,-54.22 -1.88,-71.56 2.86,-18.18 0.68,-29.47 24.7,-53.98 77.25,-64.72 378.63,-24.22 504.99,-32.2 119.37,-7.56 412.98,-44.88 514.14,-35.53 66.02,2.18 13.62,1.97 67.67,-19.07 54.18,-21.09 57.87,-7.74 59.32,-7.46 65.52,12.85 50.06,47.71 70.42,113.25 39.24,126.37 270.39,144.52 -129.49,460.65 -183.74,145.25 -284.82,83.09 -195.69,-165.09 23.13,-64.38 51.66,-128.85 58.96,-206.35l-336.48 17.66 -72.95 -2.93c-58.66,33.55 -148.91,-0.99 -203.03,37.17 -255.65,180.24 -73.74,312.71 -189.46,538.68 128.65,-10.85 510.05,-51.77 609.39,-39.27 165.61,-9.43 566.4,-148.39 787.08,-197.36l288.5 -45.71c347.22,-70.25 698.68,-185.13 1045.13,-280.42 106.37,-29.25 247.23,-79.14 303.87,-136.7 28.23,-28.68 53.66,-63.66 73.52,-102.43 -22.21,-25.73 -45.03,-50.94 -68.43,-75.59 -377.31,-397.33 -906.33,-650.83 -1497.49,-666.14 -591.15,-15.31 -1132.58,210.47 -1529.95,587.74 -221.79,210.62 -398.74,468.51 -514.49,758.09z"/>
   <path class="fil1" d="M7572.51 7833.2l-598.39 61.78c-54.58,3.98 -186.65,21.69 -232.63,15.34 -41.41,-5.72 -61.56,-25.12 -87.53,-47.44 -34.49,-29.65 -38.67,-28.15 -57.98,-67.56 -33.34,-10.16 6.16,8.49 -21.69,-11.4 -3.74,-2.66 -17.91,-15.54 -19.8,-17.54 -19.97,-20.95 -15.8,-16.86 -29.87,-39.17 -21.94,-13.55 -43.37,-33.25 -64.37,-52.53 -23.77,59.48 -44.97,120.27 -63.44,182.29 31.69,21.17 133.79,110.03 152.25,137.56 28.08,15.24 34.95,21.47 60.6,37.28 20.49,12.62 38.31,18.2 58.39,32.56 40.18,28.76 61.76,73.86 78.98,104.76 38.57,30.17 76.24,71.16 97.56,116.94 79.51,43.55 157.77,171.15 413.88,304.09 892.1,463.09 1053.14,-587.08 1171.16,-731.31 163.32,22.36 294.33,330.95 680.88,554.06 264.35,152.57 661.31,-222.17 770.65,-381.09 134.23,-195.12 148.29,-396.57 148.47,-680.23 59.7,-51.56 94.52,-64.46 135.51,-122.38 5.42,-7.66 10.24,-14.73 14.57,-21.28 -34.51,-47.28 -70.91,-93.1 -109.1,-137.35 -19.86,38.77 -45.29,73.75 -73.52,102.43 -56.64,57.56 -197.5,107.45 -303.87,136.7 -346.45,95.29 -697.91,210.17 -1045.13,280.42l-288.5 45.71c-220.68,48.97 -621.47,187.93 -787.08,197.36z"/>
   <path class="fil1" d="M9605.3 8797.16c-277.72,-83.35 -1515.89,586.3 -2340.65,580.74 -209.51,-1.4 -119.22,133.87 -30.08,291.08 195.42,344.61 413.85,606.99 896.88,612.39 296.86,3.32 561.34,-114.39 752.93,-237.02 185.91,-118.98 372.04,-299.09 505,-490.14 103.02,-148.06 294.85,-523.16 215.92,-757.05z"/>
   <path class="fil2" d="M7355.54 9535.41c-1.37,111.97 235.67,431.68 437.59,522.73 761.78,343.43 1700.27,-642.37 1663.41,-1094.64 -80.52,-1.71 -1027.1,335.86 -1266.94,403.5 -85.48,24.1 -182.45,46.65 -264.22,72.51 -170.92,54.07 -362.93,72.9 -569.84,95.9z"/>
   <path class="fil3" d="M9276.58 6898.67c33.78,-87.48 -6.13,-96.77 -63.74,-152.58 -35.79,-34.68 3.55,-12.27 -41.35,-38.57l-110.08 -31.76c-51.53,-4.73 20.11,19.13 -39.39,-9.73 -1.56,-0.75 0.55,-4.05 -20.6,-9.24 -74.19,-18.15 -15.36,-1.7 -17.5,0.67 17.01,-23.43 2.06,-39.61 0.66,-43.74 -42.93,-126.54 -256.65,-102.39 -362.99,-105.7 -1.8,2.56 -4.06,3.88 -4.77,8.09l-20.59 34.56c-34.97,47.36 -102.04,43.61 -96.46,104.48 3.03,33.1 -10.95,18.88 33.32,42.54 1.84,1 5.69,2.02 7.56,2.84l52.87 23.34c2.8,1.38 6.25,3.16 9.15,4.55 2.94,1.42 6.44,3.02 9.43,4.43 2.98,1.41 6.55,2.78 9.51,4.17 86.22,40.84 238.36,154.59 355.13,166.38 119.09,12.03 215.25,43.67 299.84,-4.73z"/>
   <path class="fil1" d="M6814.72 7173.69c-42.55,177.98 52.2,131.47 203.62,125.23 108.46,-4.48 228.01,-3.92 337.27,-2.3l72.95 2.93 349.38 -40.85c83.42,-10.53 114.23,-32.99 79.73,-119.33 -20.32,-13.49 -14.3,-7.84 -23.82,-33.41 -101.16,-9.35 -394.77,27.97 -514.14,35.53 -126.36,7.98 -427.74,-32.52 -504.99,32.2z"/>
   <path class="fil4" d="M6524.62 7727.21c14.07,22.31 9.9,18.22 29.87,39.17 1.89,2 16.06,14.88 19.8,17.54 27.85,19.89 -11.65,1.24 21.69,11.4 38.46,-29.46 65.16,-87.3 91.51,-129.47 6.98,-11.19 20.19,-29.53 27.05,-39.51 81.14,-117.74 66.97,-133.67 178.35,-130.79 67.73,167.34 36.87,371.5 -51.18,379.07l132.41 20.36 598.39 -61.78c-99.34,-12.5 -480.74,28.42 -609.39,39.27 115.72,-225.97 -66.19,-358.44 189.46,-538.68 54.12,-38.16 144.37,-3.62 203.03,-37.17 -109.26,-1.62 -228.81,-2.18 -337.27,2.3 -151.42,6.24 -246.17,52.75 -203.62,-125.23 -24.02,24.51 -21.84,35.8 -24.7,53.98 -2.73,17.34 0.98,53.03 1.88,71.56 18.71,9.46 25.91,11.07 45.86,19.25l39.2 16.89c-88.97,117.89 -111.06,-4.3 -210.31,144.87 -46.91,70.53 -90.54,153.15 -111.4,248.54l-30.63 -1.57z"/>
   <path class="fil1" d="M8664.36 7116.86c187.16,98.7 545.66,-9.36 597.65,-13.77 88.8,-7.53 131.97,15.99 208,-25.98 40.89,-256.37 -323.04,-42.58 -660.2,-79.8 -122.26,-13.48 -183.53,-21.99 -145.45,119.55z"/>
   <path class="fil4" d="M7833.85 7105.96c9.52,25.57 3.5,19.92 23.82,33.41 40.74,43.01 0,13.15 24.79,50.17 14.93,22.29 -5.69,2.65 20.61,22.58 25.02,18.96 210.73,103.25 146.46,236.21 -14.59,30.18 -162.06,154.01 -199.11,175.88 -36.69,21.67 -59.54,28.04 -109.41,22.54 6.86,-5.37 1.76,53.44 1.27,-15.51 -0.01,-1.48 -0.33,-5.5 -0.35,-7.21l104.63 -354.25 -68.62 -11.08 -349.38 40.85 336.48 -17.66c-7.3,77.5 -35.83,141.97 -58.96,206.35 -89.13,248.18 11.95,310.34 195.69,165.09 399.88,-316.13 168.73,-334.28 129.49,-460.65 -20.36,-65.54 -4.9,-100.4 -70.42,-113.25 -1.45,-0.28 -5.14,-13.63 -59.32,7.46 -54.05,21.04 -1.65,21.25 -67.67,19.07z"/>
   <path class="fil5" d="M6595.98 7795.32c19.31,39.41 23.49,37.91 57.98,67.56 25.97,22.32 46.12,41.72 87.53,47.44 45.98,6.35 178.05,-11.36 232.63,-15.34l-132.41 -20.36c88.05,-7.57 118.91,-211.73 51.18,-379.07 -111.38,-2.88 -97.21,13.05 -178.35,130.79 -6.86,9.98 -20.07,28.32 -27.05,39.51 -26.35,42.17 -53.05,100.01 -91.51,129.47z"/>
   <path class="fil6" d="M7777.94 7258.7l68.62 11.08 -104.63 354.25c0.02,1.71 0.34,5.73 0.35,7.21 0.49,68.95 5.59,10.14 -1.27,15.51 49.87,5.5 72.72,-0.87 109.41,-22.54 37.05,-21.87 184.52,-145.7 199.11,-175.88 64.27,-132.96 -121.44,-217.25 -146.46,-236.21 -26.3,-19.93 -5.68,-0.29 -20.61,-22.58 -24.79,-37.02 15.95,-7.16 -24.79,-50.17 34.5,86.34 3.69,108.8 -79.73,119.33z"/>
   <path class="fil6" d="M8668.42 6649.21c29.56,103.49 410.12,290.04 528.71,170.67 -38.13,-82.39 -133.5,-99.98 -236.95,-139.91 -92.82,-35.84 -183.57,-122.53 -291.76,-30.76z"/>
   <path class="fil7" d="M6844.59 8286.07c-21.32,-45.78 -58.99,-86.77 -97.56,-116.94 -56.49,7.81 -9.39,-7.03 -82.87,73.97 -25.55,28.18 -38.19,45.6 -85.5,47.45 -42.77,-78.73 -49.54,-194.29 -29.6,-296.02 -18.46,-27.53 -120.56,-116.39 -152.25,-137.56l-0.07 0.23c15.35,58.42 -8.05,-1.98 13.32,31.39l79.91 77.71c2.11,164.59 -2.36,295.15 66.48,408.29 109.66,9.57 175.98,-78.21 211.91,-143.19l76.23 54.67z"/>
   <path class="fil8" d="M6747.03 8169.13c-17.22,-30.9 -38.8,-76 -78.98,-104.76 -20.08,-14.36 -37.9,-19.94 -58.39,-32.56 -25.65,-15.81 -32.52,-22.04 -60.6,-37.28 -19.94,101.73 -13.17,217.29 29.6,296.02 47.31,-1.85 59.95,-19.27 85.5,-47.45 73.48,-81 26.38,-66.16 82.87,-73.97z"/>
  </g>
  <rect class="fil9" x="5393.6" y="5794.92" width="5949.1" height="5370.1"/>
 </g>
</svg>
