<?xml version="1.0" encoding="UTF-8"?>
<!DOCTYPE svg PUBLIC "-//W3C//DTD SVG 1.1//EN" "http://www.w3.org/Graphics/SVG/1.1/DTD/svg11.dtd">
<!-- Creator: CorelDRAW -->
<svg xmlns="http://www.w3.org/2000/svg" xml:space="preserve" width="169.333mm" height="169.333mm" version="1.1" style="shape-rendering:geometricPrecision; text-rendering:geometricPrecision; image-rendering:optimizeQuality; fill-rule:evenodd; clip-rule:evenodd"
viewBox="0 0 16933.32 16933.32"
 xmlns:xlink="http://www.w3.org/1999/xlink"
 xmlns:xodm="http://www.corel.com/coreldraw/odm/2003">
 <defs>
  <style type="text/css">
   <![CDATA[
    .fil1 {fill:#32221E}
    .fil8 {fill:#EA3BCB}
    .fil0 {fill:#F60005}
    .fil2 {fill:#F72C31}
    .fil5 {fill:#FC1EAA}
    .fil3 {fill:#FE0633}
    .fil7 {fill:#FE0B4F}
    .fil4 {fill:#FF1270}
    .fil6 {fill:#FF158F}
   ]]>
  </style>
 </defs>
 <g id="Layer_x0020_1">
  <metadata id="CorelCorpID_0Corel-Layer"/>
  <g id="_1860041375776">
   <path class="fil0" d="M6901.02 8060.58l-67.96 -64.86c-44.72,59.42 -122.74,137.21 -230.15,112.39 -52.46,-121.81 -29.79,-250.66 -8.89,-414.17l-68.39 -88.23c-16.53,-36.07 -1.77,27.1 -8.82,-32.98 -76.93,168.07 -133.23,348.91 -165.2,539.92 -97.76,584.09 50.49,1152.54 369.11,1599.31 318.66,446.72 807.86,772.01 1391.95,869.77 584.09,97.76 1152.54,-50.5 1599.31,-369.11 446.72,-318.66 772.01,-807.86 869.77,-1391.95 81.27,-485.57 -7.5,-960.33 -222.81,-1363.35 -5.21,5.9 -10.97,12.23 -17.42,19.07 -48.74,51.71 -85.07,59.64 -151.48,102.43 -39.8,281.27 -81.88,479.08 -242.25,653.82 -130.63,142.33 -576.63,458.49 -817.46,270.26 -352.16,-275.25 -438.98,-599.57 -597.81,-644.56 -137.18,126.55 -443.59,1145.47 -1263.56,561.61 -235.4,-167.6 -295.19,-305.07 -367.94,-359.37z"/>
   <path class="fil0" d="M6605.28 7400.6c18.13,22.05 36.64,44.58 56.5,61.09l30.15 5.83c34.02,-91.68 88.82,-167.52 145.2,-230.9 119.25,-134.07 124.1,-9.81 228.79,-114.29l-36.51 -22.23c-18.64,-10.9 -25.56,-13.5 -42.8,-25.49 1.7,-18.5 3.01,-54.41 8.14,-71.23 5.37,-17.63 4.79,-29.12 32.04,-50.07 85.64,-53.39 378.85,28.87 505.27,38.6 119.43,9.19 415.81,13.19 514.82,36.59 65.16,11.38 13.23,3.86 69.77,-9.46 56.68,-13.34 58.47,0.41 59.86,0.9 63.18,21.89 42.98,54.3 54.02,122.13 21.26,130.8 247.95,181.1 -192.76,438.72 -202.5,118.38 -294.06,42.62 -171,-191.04 31.93,-60.62 69.23,-120.56 87.29,-196.4l-336.14 -29.49 -71.92 -13.09c-62.87,25.08 -147.54,-21.79 -206.54,8.49 -278.7,143.03 -116.8,299.81 -263.13,507.73 129.1,7.21 513.03,19.91 609.8,46.18 165.54,13.79 582.41,-68.03 808.09,-85.76l292.48 -5.03c354.14,-21.16 718.71,-85.99 1075.59,-132.08 109.57,-14.15 256.22,-43.95 320.43,-93.11 32,-24.5 62.11,-55.64 87.22,-91.31 -18.43,-28.62 -37.54,-56.81 -57.3,-84.52 -318.66,-446.73 -807.86,-772.01 -1391.95,-869.77 -584.09,-97.77 -1152.55,50.49 -1599.31,369.11 -249.36,177.88 -460.86,408.91 -616.1,679.9z"/>
   <path class="fil1" d="M7686.13 7713.17l-602.04 -22.32c-54.68,-3.68 -188.12,-4.57 -232.83,-17.28 -40.27,-11.47 -57.54,-33.52 -80.17,-59.28 -30.06,-34.22 -34.42,-33.32 -48.06,-75.09 -31.64,-14.74 4.92,9.28 -19.91,-14.34 -3.35,-3.17 -15.59,-17.92 -17.19,-20.16 -16.88,-23.57 -13.31,-18.93 -24.15,-43.01 -19.86,-16.51 -38.37,-39.04 -56.5,-61.09 -31.88,55.67 -61.39,112.99 -88.37,171.91 28.46,25.41 117.3,127.8 131.77,157.68 25.71,19.03 31.65,26.17 54.88,45.43 18.56,15.38 35.45,23.4 53.36,40.45 35.82,34.13 50.92,81.87 63.68,114.92 34.03,35.31 65.66,81.22 80.42,129.59 72.75,54.3 132.54,191.77 367.94,359.37 819.97,583.86 1126.38,-435.06 1263.56,-561.61 158.83,44.99 245.65,369.31 597.81,644.56 240.83,188.23 686.83,-127.93 817.46,-270.26 160.37,-174.74 202.45,-372.55 242.25,-653.82 66.41,-42.79 102.74,-50.72 151.48,-102.43 6.45,-6.84 12.21,-13.17 17.42,-19.07 -27.62,-51.7 -57.31,-102.23 -89,-151.44 -25.11,35.67 -55.22,66.81 -87.22,91.31 -64.21,49.16 -210.86,78.96 -320.43,93.11 -356.88,46.09 -721.45,110.92 -1075.59,132.08l-292.48 5.03c-225.68,17.73 -642.55,99.55 -808.09,85.76z"/>
   <path class="fil1" d="M9567.32 8953.06c-263.76,-121.44 -1585.16,369.65 -2402.27,248.93 -207.57,-30.66 -136.93,116.1 -70.49,284.45 145.64,369.04 325.61,659.75 803.85,732.58 293.93,44.76 572.65,-35.02 779.77,-129.87 200.98,-92.02 410.72,-244.63 569.26,-415.5 122.85,-132.45 365.47,-477.62 319.88,-720.59z"/>
   <path class="fil2" d="M7233.18 9370.88c-17,110.86 173.4,461.01 360.92,579.5 707.45,446.99 1775.83,-399.5 1802.46,-853.14 -79.61,-12.95 -1065.46,189.58 -1312.75,223.15 -88.13,11.96 -187.45,20.77 -272.14,35 -177.05,29.74 -370.09,21.59 -578.49,15.49z"/>
   <path class="fil3" d="M9506.54 7024.48c45.72,-82.03 7.44,-96.81 -41.89,-160.22 -30.65,-39.39 5.23,-11.66 -35.62,-44.01l-104.73 -46.88c-50.43,-11.89 17.27,21.78 -37.7,-15.15 -1.44,-0.96 1.11,-3.93 -19.14,-12.04 -71.03,-28.36 -14.99,-3.83 -17.45,-1.78 20.15,-20.86 7.58,-38.99 6.78,-43.29 -24.91,-131.47 -240.21,-137.39 -345.21,-155.52 -2.14,2.29 -4.56,3.28 -5.86,7.36l-25.25 31.39c-41.29,42.08 -107.28,29 -110.25,90.13 -1.61,33.26 -13.49,17.2 27.1,46.85 1.69,1.24 5.37,2.79 7.1,3.87l49.17 30.53c2.59,1.76 5.76,4.01 8.44,5.78 2.72,1.82 5.96,3.9 8.74,5.72 2.75,1.81 6.1,3.68 8.85,5.46 79.79,52.55 214.77,186.6 328.92,214.61 116.42,28.57 207.35,73.37 298,37.19z"/>
   <path class="fil1" d="M7026.79 6953.31c-67.06,170.54 33.4,137.66 184.42,152.62 108.19,10.71 226.66,27.97 334.79,44.84l71.92 13.09 352.18 8.3c84.2,1.21 117.89,-16.76 95.73,-107.2 -18.26,-16.22 -13.08,-9.77 -18.95,-36.46 -99.01,-23.4 -395.39,-27.4 -514.82,-36.59 -126.42,-9.73 -419.63,-91.99 -505.27,-38.6z"/>
   <path class="fil4" d="M6661.78 7461.69c10.84,24.08 7.27,19.44 24.15,43.01 1.6,2.24 13.84,16.99 17.19,20.16 24.83,23.62 -11.73,-0.4 19.91,14.34 42.26,-23.85 76.81,-77.48 108.84,-115.62 8.48,-10.12 24.14,-26.46 32.34,-35.39 96.91,-105.43 85.08,-123.21 195.13,-104.79 43.79,175.41 -15.33,373.56 -103.71,368.76l128.46 38.69 602.04 22.32c-96.77,-26.27 -480.7,-38.97 -609.8,-46.18 146.33,-207.92 -15.57,-364.7 263.13,-507.73 59,-30.28 143.67,16.59 206.54,-8.49 -108.13,-16.87 -226.6,-34.13 -334.79,-44.84 -151.02,-14.96 -251.48,17.92 -184.42,-152.62 -27.25,20.95 -26.67,32.44 -32.04,50.07 -5.13,16.82 -6.44,52.73 -8.14,71.23 17.24,11.99 24.16,14.59 42.8,25.49l36.51 22.23c-104.69,104.48 -109.54,-19.78 -228.79,114.29 -56.38,63.38 -111.18,139.22 -145.2,230.9l-30.15 -5.83z"/>
   <path class="fil1" d="M8868.94 7155.33c171.81,124.02 542.42,66.94 594.6,69.83 89.11,4.94 128.63,34.29 209.89,3.29 76.37,-248.52 -314.4,-87.34 -643.55,-171.35 -119.35,-30.45 -178.93,-47.45 -160.94,98.23z"/>
   <path class="fil4" d="M8046.88 7028.5c5.87,26.69 0.69,20.24 18.95,36.46 34.4,48.34 -1.83,13.05 17.58,53.21 11.69,24.2 -6.01,1.84 17.29,25.28 22.16,22.29 194.54,131.82 112.23,254.69 -18.68,27.89 -182.21,130.1 -222.01,146.61 -39.42,16.36 -62.96,19.49 -111.65,7.07 7.55,-4.37 -5.72,53.23 3.42,-15.21 0.21,-1.47 0.44,-5.49 0.67,-7.2l153.24 -336.68 -66.5 -20.57 -352.18 -8.3 336.14 29.49c-18.06,75.84 -55.36,135.78 -87.29,196.4 -123.06,233.66 -31.5,309.42 171,191.04 440.71,-257.62 214.02,-307.92 192.76,-438.72 -11.04,-67.83 9.16,-100.24 -54.02,-122.13 -1.39,-0.49 -3.18,-14.24 -59.86,-0.9 -56.54,13.32 -4.61,20.84 -69.77,9.46z"/>
   <path class="fil5" d="M6723.03 7539.2c13.64,41.77 18,40.87 48.06,75.09 22.63,25.76 39.9,47.81 80.17,59.28 44.71,12.71 178.15,13.6 232.83,17.28l-128.46 -38.69c88.38,4.8 147.5,-193.35 103.71,-368.76 -110.05,-18.42 -98.22,-0.64 -195.13,104.79 -8.2,8.93 -23.86,25.27 -32.34,35.39 -32.03,38.14 -66.58,91.77 -108.84,115.62z"/>
   <path class="fil6" d="M7970.1 7172.16l66.5 20.57 -153.24 336.68c-0.23,1.71 -0.46,5.73 -0.67,7.2 -9.14,68.44 4.13,10.84 -3.42,15.21 48.69,12.42 72.23,9.29 111.65,-7.07 39.8,-16.51 203.33,-118.72 222.01,-146.61 82.31,-122.87 -90.07,-232.4 -112.23,-254.69 -23.3,-23.44 -5.6,-1.08 -17.29,-25.28 -19.41,-40.16 16.82,-4.87 -17.58,-53.21 22.16,90.44 -11.53,108.41 -95.73,107.2z"/>
   <path class="fil6" d="M8938.3 6692.15c14.86,106.75 366.18,344.9 500.46,243.09 -26.3,-87.02 -118.42,-117.79 -215.43,-171.83 -87.04,-48.51 -164.92,-147.16 -285.03,-71.26z"/>
   <path class="fil7" d="M6901.02 8060.58c-14.76,-48.37 -46.39,-94.28 -80.42,-129.59 -57.11,-0.15 -8.33,-8.28 -92.51,61.78 -29.27,24.37 -44.24,39.88 -91.41,35.1 -31.42,-84.05 -21.99,-199.58 12,-297.68 -14.47,-29.88 -103.31,-132.27 -131.77,-157.68l-0.1 0.22c7.05,60.08 -7.71,-3.09 8.82,32.98l68.39 88.23c-20.9,163.51 -43.57,292.36 8.89,414.17 107.41,24.82 185.43,-52.97 230.15,-112.39l67.96 64.86z"/>
   <path class="fil8" d="M6820.6 7930.99c-12.76,-33.05 -27.86,-80.79 -63.68,-114.92 -17.91,-17.05 -34.8,-25.07 -53.36,-40.45 -23.23,-19.26 -29.17,-26.4 -54.88,-45.43 -33.99,98.1 -43.42,213.63 -12,297.68 47.17,4.78 62.14,-10.73 91.41,-35.1 84.18,-70.06 35.4,-61.93 92.51,-61.78z"/>
  </g>
 </g>
</svg>
